/* XPM */
static char *_2b1843d2e9c4c6bdd9859e96a4f5ef1rb6tzeoaVbkTxYck[] = {
/* columns rows colors chars-per-pixel */
"64 64 172 2 ",
"   c #2C2E31",
".  c #2F3135",
"X  c #2F3138",
"o  c #313336",
"O  c #33353A",
"+  c #36393D",
"@  c #393B3E",
"#  c #373B41",
"$  c #3B3D42",
"%  c #3E4145",
"&  c #3F4249",
"*  c #424346",
"=  c #43454B",
"-  c #46494C",
";  c #494B4E",
":  c #454751",
">  c #464952",
",  c #4B4C53",
"<  c #4C4E59",
"1  c #514F59",
"2  c #4E5154",
"3  c #4E515A",
"4  c #515355",
"5  c #53555B",
"6  c #56595B",
"7  c #595B5E",
"8  c #535661",
"9  c #565962",
"0  c #5B5C63",
"q  c #5C5E6A",
"w  c #605F64",
"e  c #5E6164",
"r  c #5E616B",
"t  c #626466",
"y  c #696661",
"u  c #666867",
"i  c #63656B",
"p  c #66696D",
"a  c #696B6D",
"s  c #746F67",
"d  c #75746F",
"f  c #636672",
"g  c #666974",
"h  c #6B6C73",
"j  c #6B6E7A",
"k  c #706F70",
"l  c #6E7174",
"z  c #6E717B",
"x  c #727375",
"c  c #7B7B77",
"v  c #73757B",
"b  c #78777A",
"n  c #76797D",
"m  c #7B7C7D",
"M  c #817E7F",
"N  c #7F807E",
"B  c #82827D",
"V  c #737581",
"C  c #777981",
"Z  c #7B7D82",
"A  c #7E7F8A",
"S  c #7F8185",
"D  c #7F828A",
"F  c #838385",
"G  c #898683",
"H  c #868886",
"J  c #898987",
"K  c #84858A",
"L  c #86898C",
"P  c #8B8B8D",
"I  c #908D8D",
"U  c #8F908F",
"Y  c #92918E",
"T  c #878A90",
"R  c #8C8D92",
"E  c #908F93",
"W  c #8F9193",
"Q  c #939395",
"!  c #999796",
"~  c #939895",
"^  c #9C9B96",
"/  c #959599",
"(  c #98979A",
")  c #96989C",
"_  c #9B9B9C",
"`  c #A19F95",
"'  c #A09E9D",
"]  c #9FA09B",
"[  c #A5A497",
"{  c #AAA697",
"}  c #A7A598",
"|  c #A6A49A",
" . c #A1A09E",
".. c #A6A49F",
"X. c #A5A49D",
"o. c #A3A29D",
"O. c #A9A79E",
"+. c #A9A69D",
"@. c #AAA99E",
"#. c #ACAA9F",
"$. c #AEAC9F",
"%. c #ADAB9F",
"&. c #B1AD9E",
"*. c #B3AD9F",
"=. c #9D9EA1",
"-. c #A09FA1",
";. c #9FA1A3",
":. c #A0A2A3",
">. c #A5A6A0",
",. c #A0A3A4",
"<. c #A4A3A4",
"1. c #A9A6A4",
"2. c #A7A8A6",
"3. c #ABA9A2",
"4. c #ADABA0",
"5. c #AEACA0",
"6. c #A8AAA6",
"7. c #AEABA4",
"8. c #ADACA4",
"9. c #ACAAA4",
"0. c #A6A6A9",
"q. c #A9A6A9",
"w. c #A7A8AA",
"e. c #ACABAB",
"r. c #B2AEA2",
"t. c #B1AFA5",
"y. c #B1AEA4",
"u. c #B1AFAC",
"i. c #B7B1A3",
"p. c #B4B1A5",
"a. c #B6B2A5",
"s. c #B7B4A5",
"d. c #B5B1A4",
"f. c #B8B3A4",
"g. c #B9B4A6",
"h. c #BAB5A6",
"j. c #BEB9A7",
"k. c #B2B1A9",
"l. c #B6B3A8",
"z. c #B4B3AD",
"x. c #B4B2AC",
"c. c #BAB6AA",
"v. c #BAB7AE",
"b. c #BAB6AC",
"n. c #BDB9AE",
"m. c #AFAFB4",
"M. c #B0AEB1",
"N. c #AFB0B2",
"B. c #B4B3B3",
"V. c #BAB7B0",
"C. c #B9B6B3",
"Z. c #B7B8B6",
"A. c #BDBAB1",
"S. c #BCBBB3",
"D. c #BCBAB3",
"F. c #B5B6B9",
"G. c #B9B7B9",
"H. c #BCBBBB",
"J. c #C2BBAE",
"K. c #C2BEB4",
"L. c #C1BEBB",
"P. c #C5C1B5",
"I. c #CAC3B6",
"U. c #C4C2BC",
"Y. c #CAC5BB",
"T. c #D2C9BC",
"R. c #BEBFC0",
"E. c #BFC0C1",
"W. c #C4C3C3",
"Q. c #C8C6C3",
"!. c #CCC9C3",
"~. c #D3CBC1",
/* pixels */
"5 6 = ; $ # = x c J c p i L ^ o.Y { ^ P ~ >.c.@.| &.^ o.P 0 = > e ~ Y 5 * % + $ % O o O + * = = * @ = * $ $ = O % * ; 4 = , $ $ ",
"0 0 ; ; $ $ , k F B y a i F _ O.` { X.P ) 6.S.4.$.s.5.@.Q p 0 v L ^ ^ x > - + $ % O O o O * , % ; = * * $ = 6 - = = ; 7 $ 4 & + ",
"i t ; ; $ * , F G P G a i P 3.8.} [ P P W ) S.r.p.h.d.#.O.x h ^ _ | 5.m 2 ; $ 2 = + O + $ $ * = * $ = * = * = , 4 ; , 5 = = $ O ",
"v 0 , , $ * 4 F J P P a i P k.z.d.t.Y Q / ,.B.c.5.p.h.s.3.N m X.^ } | 9 , - $ - * $ o O % $ - , , * * ; = + % , 4 ; , = = # X + ",
"x h 5 , # % , G Q Y ~ a h ! k.k.l.l. .Q :._ V.v.r.r.f.&.#.^ X.7.o.&.p.i 3 , = e = @ o O * % + * = * ; = = + * ; ; * = = , , $ $ ",
"x h 0 = # = 4 L W J ~ x v P 8.t.t.t._ / / ( v.p.r.d.h.h.5._  .@.4.&.$.P 0 3 , t = O . . $ $ O @ * * * = = @ = ; = * = $ , , = $ ",
"n x 4 = * , 0 Q L m ! v v n ! 8.l.V.( _ _ _ k.h.h.j.c.h.c.o.L o.l.d.p.p.F 6 4 4 +   o O + % + , * $ @ * * @ $ ; , , = * , , : # ",
"x h , , , 4 q F x L ^ h h n L R Q =.R / R Q 7.c.j.j.p.n.S.3.4.8.p.d.h.l.' 0 - $ . o . o O % + = = * * * $ @ ; ; ; , = = : 1 * + ",
"h p , * = , 0 G b F ' x h P L P L / Q Q E / V.c.h.j.n.c.v.v.t.t.l.h.n.S._ p , O O o     O O + * = = , * $ % * * ; , = ; , , , = ",
"p h 5 $ $ , i v n ^ :.Z n S P R K R / / ) _ 3.p.r.J.K.l.S.S.k.7.z.S.l.k.K e 5 $ O $ $ O O + $ % 4 t 7 = @ * * * , , , ; = , % = ",
"i a 4 # = , i x x ^ P h v F P _ R / Q R / e.S.v.J.P.K.c.K.V.z.t.t.n.l.P l 0 0 e - % $ O O + = , 4 7 5 * = $ $ * $ ; 5 ; = 6 ; , ",
"t a 4 O , 5 i M m Z Z v S / ( _ / ) Q ) 2.B.U.S.n.K.J.h.K.V.D.8.t.K.v.Z l q 0 0 2 - 6 % % $ = , 4 , , = - = 2 5 0 4 , ; , - 4 % ",
"0 i , O k Z v I F Q Q m ! R Q K / _ =._ w.G.U.K.K.K.P.K.K.V.V.8.7.v.l.v Z p i i 0 2 G t 2 , , 4 4 5 5 = - = , 5 p 0 = ; ; * = % ",
"0 x 4 + G ! K K M ` ^ L L W U F / =.=.,.e.H.U.K.K.J.K.n.z.z.V.e.>.8.>.m / Q F Z h x 7.! f 5 3 9 , 2 i 5 > - 7 7 i i , ; * % , - ",
"0 h 4 O w F Z L F I O.Q Z P H G P ! =.e.B.L.U.K.P.K.P.S.B.2.z.,._ S.l.F ^ e.3.n l v t.J L p > 3 , t 0 > , , e 5 r 0 0 5 = = ; - ",
"5 u , # 4 h F P J s ` G S P ~ o. .( =.e.B.U.U.P.P.A.K.t.e._ 2.( ! S.z.^ t.z.U.Z v l K.P o.F & > = 6 2 = , - 0 9 0 6 , , = = - = ",
"= 7 = $ , x Z G G y P F S ~ [ h.z.B.e.,.B.L.U.K.K.P.S.Q ) L ! F ( K.>.v.D.K.Y.! Z p 4.F X.G > 8 : , = = * * , 6 0 , , , , = * = ",
"* 7 ; $ 4 F h P J a G Z m ^ | c.S.D.D.0.Z.H.H.S.U.Y.V.L Q n n h P K.' S.S.I.Y.' S x n n z.P j 8 > 3 , , % = = q 8 * * , 5 , = = ",
"= 4 * % 0 L Z G F Q R F L ] p.d.V.H.D.,.Z.H.D.U.U.Y.V.4.Z v v h ^ K.<.7.V.T.T.z.Q Z Z v 2.n r 8 > , 3 3 & $ , < , > : : > = % = ",
"= ; # = i P Q b J / Q Q P o.n.c.S.D.Z.w.Z.L.U.L.U.S.z.J.F C v z v.K._  .D.~.T.z.L Z C Z R l q 8 & , 3 8 = % 6 > , > < = < = & , ",
"; - , ; b ^ _ P ! =.Q P F X.v.l.S.D.B.w.:.Z.W.S.H.B.w.J.( F Z K I.K.3.>.S.Y.Y.z.L Z D C S r q < = < 8 9 2 $ = < , < < : : * $ - ",
"; 0 7 2 F  .3.X.! 1.( _ ( V.K.S.L.D.D.e.e.B.L.H.Z.w.:.t.! Z C S z.v.P._ K.D.Y.e.L Z K D T h f 9 , 5 5 3 , $ 9 9 4 0 8 : * $ = , ",
"; a i 0 P 3.3.l.8.:._ 2.:.V.K.S.K.U.H.N.e.U.U.L.z.e.2. .W D S K :.S.n.t.1.2.z.6.R Z P K L v j q , 3 9 3 = $ 6 < , : < = : * , = ",
"2 h 0 i Y 3.7.p.p. .2.2._ A.P.P.Y.Y.W.B.G.U.!.U.H.Z.B.X.6.R L P 6.K.K.K.:.P 1.z._ S Z K K V f 0 3 8 0 < : $ = < : , 3 : : * ; 5 ",
"7 i 0 i W 6.l.h.l.8.2.,.X.v.P.P.Y.W.H.F.H.H.!.U.Z.Z.B.v.z./ K K V.Y.P.U.e./ ) w.Q n K K e.L j g f f g q , > & , < : > : > = , 4 ",
"4 i e p G 6.t.h.p.w.2.w.k.S.P.P.U.W.R.H.H.H.!.U.H.U.H.S.z./ Z K V.Y.U.U.8.Q Q =.L v K L 2.u.A V j j f q , > & : > > > > > > * = ",
"e 0 0 0 n _ 3.h.O.' w.e.z.v.P.K.A.W.H.W.H.W.!.P.W.U.U.v.B./ K K e.U.U.D.e.P P / L Z T Q <.K.R A j V j q 5 > & : = & = : , - = ; ",
"7 e 0 i x K 3.d.o. .<.e.5.v.P.K.A.H.G.E.R.Q.!.P.W.W.L.V.B.,.L L ,.e.z.z.:.Q S T K v W R <.z.R D z j v f < > & & = & > > = , & ; ",
"5 p r r i K  .#.` 1.>.B.l.V.S.K.P.L.H.R.W.!.U.U.Q.W.H.K.H.2._ P ,.0.w.2./ / F F F Z L K / / A V z i j f , = = & = = , , = * * = ",
"0 i t 6 i K <.j.p.u.>.B.l.S.v.S.U.U.H.E.H.W.U.K.L.U.K.K.S.z.e.) 0.2.w.R Q / Z P R Z Z L Q W v j q r f q , > , & = & = > = % * = ",
"t a i , i P 2.J.t.>._ B.v.l.v.D.U.Z.G.R.H.L.U.D.Q.U.S.K.K.D.z./ =.=._ Q R P Z R L v Z R Q T V z 9 f f 9 , : < > = = * , * = = ; ",
"h v 0 0 i E :. .>. .2.B.A.v.S.D.Z.F.B.R.W.W.Z.B.G.e.H.K.Y.V.z.;.=.,.Q W K P F P v C L K ) A z f r f q q < * 5 3 3 & $ = = = % = ",
"n v 0 0 h F  .!  .e.6.B.l.S.V.D.G.H.F.m.F.e.2.e.0.2.v.J.Y.U.e.e.;.=._ P P P L F h v T v F R Z g q r r i 8 = , > 3 > & = % $ % $ ",
"Z K p i l x ( !  .B.w.D.v.S.z.z.B.G.G.W.H.Z.B.e.B.G.V.K.K.Z.e.0.Q Q / R Z K Z l h S Q / _ L C V j g g j 8 = , = , = $ = = $ , * ",
"K K i i Z a ( P ^ e.8.H.V.V.z.8.e.H.F.H.H.G.e.e.B.U.K.I.K.B.w.w.R L _ _ Q W R F n R / K T A h j g f z g 8 , , , , = $ & = $ - ; ",
"R F h h K v _ ! <.u.e.Z.D.8.w.2.w.H.G.W.W.H.1.B.G.Q.Y.I.z.,.:.e.=.) _ / L Q / R F Q / F L Z v j r j C g 8 = < > , & & = % + $ , ",
"Q P h p F n ( _ 2.B.w.e.B.w.6.w.w.G.G.W.W.G.2.Z.H.!.Y.I.V.w.=.e.0.,.=.=.R Q =.E Q ) Q K R C v g i f f f < = 4 = * , * > , O $ ; ",
"_ Q v h n b _ >.e.Z.6.e.q.:.u.B.2.G.Z.Q.W.G.8.G.S.!.Y.K.S.w.,.0.0._ _ _ _ _ _ Q _ =.=.Q Q C z g r 0 9 r > = 6 > = , & > , + $ 2 ",
"_ / S v x Z _ ^ z.Z.w.e.:.:.e.w.,.H.B.W.W.Z.B.Z.K.!.U.K.S.w.,.;.,.,.0._ z.:.=._ _ R _ R K v g 9 3 , 3 3 > = , > = > = > = * $ ; ",
"Q E n v h F :.^ 8.z.e.e.2.2.6.2.m.H.w.W.W.D.Z.M.L.L.K.K.V.e.0.0.=.0.0.=.S.e.w.,.=.K P K S z 8 > : = , , = , 5 2 : : = , * % # = ",
"Q K Z v x P :.w.u.e.e.B.:.8.1.u.B.H.e.W.W.H.Z.B.D.B.D.S.B.e.2.0._ =.M.z.K.q.=.:._ R Z S h V q 5 , , > & = 5 , 4 3 = $ % $ ; = * ",
"Q / K Z v K 2.q.B.8.u.B.>. .e.Z.B.Z.w.Q.W.G.B.B.Z.M.z.D.e.e.,.) ,.-.Z.D.U.e.,.,.) L S h z z r 5 - > , % = 0 0 , , & = 6 ; * $ % ",
"( Q K F L ) w.e.B.u.u.M.<.' 2.B.B.B.w.L.W.Z.e.Z.G.Z.l.t.>.2./ R ,.=.z.S.L.2.:.=./ T Z n v 0 9 5 - & & = = 6 , > > * = 7 = * $ % ",
"-.Q R T R / e.8.e.B.u.B. .<.2.e.M.G.2.H.W.G.e.G.M.D.S.8.8.,.=.=.w.,.B.Z.B.w.:.Q W R v v h e > : > * - $ = * 2 : = , , 6 * $ , = ",
"_ / P R ) ( <.e.B.u.e.Z.w.2.2.e.B.H.B.H.W.H.8.Z.F.Z.V.u.w.! =._ e.=.B.w._ / ( Q R p 9 q 4 9 = & > * , = = - 2 , > , , t , - 5 % ",
"_ =.T Q _ _ w.<.u.e.u.H.8.2.:.e.Z.Z.e.G.W.G.B.G.F.M.u.e.2._ ;.,.0._ :.,.) Q Q K R 9 3 q 5 5 $ # & % = - = , > = = > , i , , 7 - ",
"P / / Q / Q _ e.u.Z.V.L.l.t.<.:.H.B.G.Z.W.Z.B.H.B.B.w.:.:.=./ =.=./ Q =.;./ P K K , 5 5 3 > & % & % = = $ $ 4 : = : > 0 7 , 4 ; ",
"E / / / =._ _ >.B.L.V.K.4.t.:.8.Z.m.e.M.L.B.B.Z.G.u.0._ _ _ / Q =.-._ R Q P S Z n , 5 , , = = & = % $ $ $ $ = = = , , 4 ; , 4 ; ",
"_ _ P ) _ =.2.1.D.Y.K.n.r.l.:.e.B.Z.Z.B.G.z.Z.B.G.D.w.;._ ( Q R / / / P P F n m l 2 0 , - = = $ ; - % # $ $ > = = = , 5 = , , % ",
"-.-.E Q =._ <.1.S.J.J.l.i.c.t.8.B.B.Z.e.G.V.z.B.D.z._ Q :.Q R Q Q L P P K Z l a i 5 5 > - = = % - - $ # $ $ * = = - , 2 $ = - % ",
":.0._ ( 0.0.<.2.z.c.n.3.*.p.l.e.u.Z.B.w.B.D.S.2.B.w.( ( 2.U L Q W G Q R F b h p 5 0 5 2 % % = = = * + $ + # = = $ - = % % $ * @ ",
"( _ / ( <.q.1.' 8.u.:.>.t.n.l.6.1.2.2.w.z.K.P.B.w.:._ ( Q P R P K v S L F n x 5 = e , = & $ & - $ $ + $ @ $ * = = - = * * * $ O ",
"_ -._ ( _ q.1.:.e.1.^ 1.n.n. .>.:.2.w.0.z.K.K.8.w.P P L a P P L Z l x m F b a 5 = , = $ % $ $ - = % $ = = = > * , - , = * + $ + ",
"_ ( _ -.-.e.e._ e. ._ 7.j.t.Y ! _ ;._ 2.z.v.K.>.( Q L F l F L F b p p l v v l - % - % % $ $ $ $ + $ % , 2 $ = & = * , , # $ @ $ ",
"1._ ( e.q.q.e._ _ ! ^ 3.f.t.Y ! _ ( R 2.B.V.H._ _ P P L p x m p p e e e p a a - % % = % = # $ $ + # % * - % - = = = , = $ $ @ = ",
":.<.q.q.M.<.<.<. .^ ^ ' 3.o.L P :.L P ,.8.:.2.! W x Q S e a t 7 6 4 2 5 e 2 4 = @ $ - $ $ $ $ = % + + + % 2 5 4 , , = = $ @ @ @ ",
"' 2.q.0.w.<.1.2.>.( _ ! ~ Y G Q :.L Q _ ! P Q n L x S l x l 7 5 , = - , 5 2 ; $ $ $ = @ % $ + # * $ + O * 5 0 2 = , ; = * O @ + ",
"2.:.:.0.<.q.e.:.<._ ! P Q H L P W F x b v x l l S t e 5 7 7 ; , 2 % % - - - % % % % + O + O + O @ $ % * = 6 7 , 4 = = * @ * @ @ ",
":.-.<.<.<.<.e._ _ I ! G F H L P n v l L m a t S m t e 5 2 ; , ; 2 = - ; - , = = $ $ + O O + + + $ $ % % 4 6 4 ; , 5 , ; * * % @ ",
"_ <.u._ q.<.2._ _ ! ! F x m P P L L L W m t 6 e a 7 5 2 ; - * - ; - = = - = ; 2 % + + @ + @ + @ * @ - ; 7 , - = ; , 2 6 % * * O ",
",.<.G.,.<._ _ 6.Q ( Q F m m G L ) L v m t 4 2 6 p 6 6 2 * ; 4 - = % % = % * % - - O % - O @ % % @ @ - - 2 4 ; ; 4 , , 4 $ - * @ ",
"=.( e.<.:.' _ ' ^ P P m L m F m Q P v h 2 4 4 2 2 2 2 2 = ; = * = % % $ $ = % - - + O @ O @ @ * = @ - ; * ; * 4 , - = ; = ; = = ",
"/ _ ' M.w.8.>.' e.F l x m a b l l m e , 2 6 6 ; 6 5 - * - - - - $ % * $ @ % % * + + + @ @ % O O - * $ = - 2 - $ $ $ % = 4 4 - = ",
"( ( ( e._ 2.^  .2.F x 2 6 u a 7 e a t 2 ; ; 6 ; d ; - * * * - = $ @ % % % % $ $ @ + + O @ O + o $ O + - - ; ; % @ + $ - 2 ; @ * "
};
