/* XPM */
static char *_ae3f75c50d245fba4b77cef35a06e9akn9gPgFE0yKCDWXI[] = {
/* columns rows colors chars-per-pixel */
"64 64 142 2 ",
"   c #26171F",
".  c #28171F",
"X  c #291720",
"o  c #2C1A22",
"O  c #321D26",
"+  c #341F28",
"@  c #352029",
"#  c #3B232D",
"$  c #3E2531",
"%  c #3F2A34",
"&  c #412632",
"*  c #442935",
"=  c #482B37",
"-  c #462B38",
";  c #4B2D3B",
":  c #502F3E",
">  c #4D313E",
",  c #51313E",
"<  c #4E3140",
"1  c #523342",
"2  c #593646",
"3  c #553846",
"4  c #593847",
"5  c #573748",
"6  c #5A3748",
"7  c #573A48",
"8  c #5C3A4B",
"9  c #613C4E",
"0  c #633F50",
"q  c #683F52",
"w  c #604050",
"e  c #634252",
"r  c #654050",
"t  c #644051",
"y  c #644052",
"u  c #654153",
"i  c #664153",
"p  c #644353",
"a  c #664253",
"s  c #664254",
"d  c #674254",
"f  c #654454",
"g  c #674454",
"h  c #674455",
"j  c #674254",
"k  c #6A4153",
"l  c #694255",
"z  c #684355",
"x  c #6B4255",
"c  c #6E4256",
"v  c #6F4357",
"b  c #684556",
"n  c #684657",
"m  c #694657",
"M  c #6D4457",
"N  c #6F4556",
"B  c #6F4457",
"V  c #6B4255",
"C  c #6A4658",
"Z  c #6A4758",
"A  c #6B4758",
"S  c #6B4759",
"D  c #6C4458",
"F  c #6E4659",
"G  c #6E4659",
"H  c #6C485A",
"J  c #6D485A",
"K  c #6E495B",
"L  c #6E495C",
"P  c #6F485B",
"I  c #704357",
"U  c #714457",
"Y  c #714559",
"T  c #724558",
"R  c #70445A",
"E  c #70475C",
"W  c #73465C",
"Q  c #73475D",
"!  c #74465D",
"~  c #72465A",
"^  c #714B5E",
"/  c #74495D",
"(  c #784C5F",
")  c #774860",
"_  c #764B60",
"`  c #764C61",
"'  c #774F63",
"]  c #764C61",
"[  c #794C60",
"{  c #7C4C63",
"}  c #7D4F63",
"|  c #7B4F65",
" . c #7C4C64",
".. c #7B4E62",
"X. c #7B5266",
"o. c #7D5066",
"O. c #7E5167",
"+. c #7E5066",
"@. c #7F5168",
"#. c #824E65",
"$. c #855067",
"%. c #815266",
"&. c #835268",
"*. c #855369",
"=. c #84556A",
"-. c #87576F",
";. c #83536A",
":. c #89566D",
">. c #89586D",
",. c #8F586F",
"<. c #8C596F",
"1. c #885770",
"2. c #8E5A70",
"3. c #8C5972",
"4. c #905A71",
"5. c #915B72",
"6. c #925C75",
"7. c #935E79",
"8. c #966077",
"9. c #976278",
"0. c #96617B",
"q. c #9D637C",
"w. c #9E657D",
"e. c #9B627B",
"r. c #A1647D",
"t. c #9B6480",
"y. c #A66580",
"u. c #A46781",
"i. c #A26882",
"p. c #A96D86",
"a. c #AE6F89",
"s. c #B16E8A",
"d. c #AB7189",
"f. c #AF708A",
"g. c #AF708B",
"h. c #B4748F",
"j. c #B97792",
"k. c #BA7893",
"l. c #BF7B98",
"z. c #C07C98",
"x. c #D588A7",
"c. c #DD8EAE",
/* pixels */
"1 5 5 5 > 5 5 7 8 8 w y 1 Z H L ^ X.8 f f f 7 1 Z H H H Z Z n n Z ` > # # # # # # # # # # * y 5 Z n w 9 7 8 w f Z 1 0.d.f H f - ",
"> 1 1 1 ; & ; ; ; ; ; 1 1 d y 9 7 E 1 8 8 d 7 8 8 8 y d d d d d d -.F @ o o o o O o X X O @ & 1 1 1 1 1 - ; 1 7 8 ; k f.<.d 0 $ ",
"> 1 1 1 - O - ; 1 1 6 9 ; 9 1 1 1 8 7 7 y 0 1 1 1 1 8 d d y y d d +.F O X o O + @ o X X X X # 1 1 1 1 1 $ & > 7 1 ; 9 ,.} 7 9 - ",
"- ; - # - & > < 1 6 d k > - # & ; & + - # $ + & 1 1 7 0 y 7 1 0 d | 8 @ + @ @ @ @ @ X o X X ; 1 1 1 < 1 ; o # & # ; 9 $.I ; ; $ ",
"$ ; ; ; 1 $ o o @ # # # - - = , 2 ; $ 1 1 8 ; $ 7 6 1 1 8 y d y d _ ; @ @ @ @ @ @ @ o o O # 9 y 7 1 1 1 > o # # & ; k 4.} 1 1 # ",
"* 1 1 1 1 1 X X o X X O 1 ; = , 1 ; 9 $ 1 d ; * d y 1 1 d d y y d +.$ @ @ @ @ @ @ @ @ O + @ - # # # # # O o # # & 7 ..*.~ 7 7 < ",
"* 1 1 1 1 - X X X X X O & = * = ; - - - 8 d 0 $ d y 2 8 d d y d d ` > =.<.4.w.q.u.1 > 1 0 +.E ~ E ! [ | 0 o # # ; 8 } &.M 1 1 ; ",
"* ; 1 > 1 - X X X X X @ & & & ; ; & & $ 1 y k + 8 y 9 d d k d k d 9 y M 9 9 9 9 M M 1 1 1 2 1 1 1 1 1 1 } @ ; = ; 1 0 ~ M = 1 # ",
"# - O # # O o O + @ @ $ $ # & ; ; = # # < 9 8 o # # = ; < ; - ; ; & / / 9 9 9 9 0 9 ; 1 2 1 7 1 1 1 1 1 M - ; ; = 1 / =.+.0 d 1 ",
"1 #.; 1 7 1 ; 1 1 6 4 - # & # ; ; * # & 1 y F + 1 y ..X.O.&./ 1.1.k y / 9 0 9 9 9 9 - 1 y 8 d 0 1 1 1 1 n ; = ; ; 1 } %./ y y - ",
"> k 9 1 0 7 7 1 1 1 ; & - ; ; ; ; = & , 8 d ^ * 9 8 d d d d 9 y 8 _ 1 ~ 9 9 9 0 / ~ 1 w d d d d 0 9 7 7 8 8 ; & + ; ^ / 1 ; - O ",
"> ~ M < 1 ; 1 1 1 1 ; # - ; ; ; ; ; ; , 8 d ^ > 1 2 d d d d 0 y 1 ^ - } ..W 9 M 0 8 - d d d d d d d y y d 1 # 1 W M U ~ k q 2 . ",
"> k M 1 1 ; 1 1 1 1 ; + # & - ; ; ; ; = 8 d k 1 y d d d d d 9 0 d Z 7 ~ / ..k ~ 9 , O > 1 2 7 6 6 1 6 2 1 1 7.y ~ 9 9 9 9 9 #.9 ",
"< / k 1 1 ; 1 1 1 1 ; & $ o O O O O o O # # @ 1 d d d d d d y 7 y y 1 ~ / k 9 9 k ; - 1 6 9 9 8 8 d ^ +.;.- ^ 8 9 9 9 9 9 9 0 q ",
"< q 9 1 8 ; 1 8 8 7 > 1 F y $ ; 1 6 F ..&.3.d > d y 9 9 9 9 9 9 9 9 7 1 1 1 ; & = # 1 d d d d y y d d 0 &.$ 7 ; 9 9 9 9 9 9 9 k ",
"- 8 & > 7 & ; 7 8 7 1 & 7 2 1 1 1 1 7 d 0 8 7.- y y y d d d d d d d 4 ^ ;.| &.F E ; 1 k d d d 9 2 d 0 7 0 ; 8 - 9 9 9 9 9 9 9 2 ",
"@ + + O * ; ; 1 ; 8 d 1 1 - 1 1 1 1 8 7 8 8 t.# * - 2 8 8 9 0 0 0 9 ; d d y y y 8 1 * d 0 6 1 1 1 d 8 y F ; > O 1 6 6 6 6 8 6 - ",
"- 6 2 - 1 = > = = 1 < > 1 ; 1 1 1 1 1 7 y 0 1.$ 1 > , 9 # 8 F ..+./ # d d y 8 1 y 7 # - - - # - ; 1 1 1 & & > - - = ; ; ; ; ; X ",
"1 d y ; 1 # ; > , > > 1 1 $ 1 1 7 d 1 1 1 1 F # 1 1 1 ^ > d d d d y # d d d 9 1 2 8 1 / F ..+.| ~ ^ k ..; ; 1 1 > - - ; ; ; ; o ",
"1 y 8 > 1 Z d 9 1 1 1 1 8 > ; 1 1 6 1 1 1 8 d - 1 1 8 0 2 d d y y 9 & d d d 8 y 0 7 > 7 1 y 1 1 1 1 0 d ^ 1 0 0 8 2 1 8 n 9 ; X ",
"1 y d 1 8 9 9 7 ; ; ; ; 8 7 [ 9.9.p.f.9.; 6 8 & 1 7 k ^ _ 1 * & # @ + & & * & - * O - 7 1 7 1 0 d d d k y 1 9 y y 2 7 y d y y - ",
"> 1 2 ; 1 = 1 1 2 1 6 ~ 9 > k W / ..} 9.j...0 8 d d d d k / 8 y $ & = , 1 , - ; 1 # # - & # $ * - - $ & * - 1 1 1 ; 1 1 ; - ; @ ",
"# - 1 $ 1 9 F 8 2 1 1 0 2.=.0 ......} } +.h.w.& - = = - - & & $ - ; ; ; ; ; ; , 6 1 > 0 - & 7 y k - 1 0 d 8 1 1 1 ; @ 1 9 9 * o ",
"8 y 0 8 - d d 0 1 1 1 7 F &...} } } } } ....x.; F / ..+.^ d &.; ; ; ; ; ; ; ; ; ; 1 1 k ~ F 1 1 1 # ; 1 9 7 1 1 7 y - $ 1 8 y < ",
"8 d y ^ 1 d y d 0 2 1 9 d F ..} } } } ../ W r.- 0 d d d Z d H 8 ; ; ; ; ; ; ; ; ; 1 1 d d d 9 F k 1 - 1 2 8 1 1 8 d > ; n d d > ",
"8 d y n 1 d 9 d d 9 d d n / ~ M ..} ..0 k / q.; d d 9 y k d k F ; ; ; ; ; ; ; ; ; , 1 d d d d 2 7 0 * 9 d d y d d d 1 - 9 d d > ",
"5 d y 0 1 d d 8 8 7 2 9 k y 9 W ..} } ../ F 2.; d d 8 8 0 d d F ; ; ; ; ; ; ; ; ; , 1 d d d d 0 8 2 1 d d d d d d d 1 1 1 y 0 > ",
"7 8 d 9 8 d d y d 8 1 y k 9 / ....} } ......} ; 7 9 0 y 9 d d y ; ; ; ; ; ; ; ; ; , 1 d d d d d d y 1 1 1 1 1 1 1 1 - 9 1 7 d > ",
"8 8 d d 8 y 7 9 y y 8 y d 1 & - - = * - - # $ ; 8 y d d 1 d d 9 = ; ; ; ; ; ; ; ; , 1 d d d d d d d 1 7 7 1 1 1 1 1 > d 9 1 8 * ",
"8 d y 0 4 * & 1 1 ; ; ; = ; 8 k ^ ^ F F ^ F -.; > 1 8 1 * 8 8 > # - - ; ; ; ; ; ; = 2 k d d d d d d 0 8 8 1 1 1 8 6 7 9 1 1 1 * ",
"7 7 8 1 # ; 1 1 2 6 k y 1 - 1 8 8 0 9 8 2 9 k 1 + @ @ @ + ; ; ; & # + + + + + @ + + 1 d d d d d d d 8 > 1 1 1 1 > = - ; ; 8 9 ; ",
"@ - - - $ # @ $ & ; 1 1 - - 9 1 8 y 9 8 1 7 k 8 @ @ @ @ # ; ; ; , 9 8 +.-.1.6.0.0.e.; d d d d d 9 ; # # X X o + @ # 8 2 1 , ; @ ",
"> 1 1 1 8 F ^ 1 y k 6 y 2 ; y 8 d d y d 1 1 y 9 @ @ @ O @ ; ; ; ; 1 1 d d d d d y 2.; & * * 1 9 M +., 1 M #.+ O + & 1 1 1 1 1 8 ",
"% 1 7 1 1 1 d 1 1 7 7 y 8 1 1 8 d 0 1 0 1 0 d 8 @ @ @ @ # ; ; ; ; , 1 d d d d 9 9 0 7 - =.0.w.9.8.8.4.; 2 ~ M o o & 1 1 1 1 1 1 ",
"- y 0 0 1 7 0 1 + # * ; ; - & * ; > * ; > 1 1 * # # $ $ # # # # # $ > d d d d d d d 2 > ( ..} } ~ 9 9 k 1 9 q.O O * 1 7 7 1 1 < ",
"% 1 1 1 2 0 7 1 q.s.a.u.r.r.j.q.r.k.~ 2.6.7.0.0.0.e.e.e.i.k 8 d k 1 ; d d d d 8 7 8 > 1 } } } } / M 9 { 1 9 9.# o 1 2 0 y y y 5 ",
"@ # # - - * $ y +./ k k k +.<.:.=.z.7.y 7 0 d d d d d d k | 1 d d F ; d d d d 9 0 y 1 9 } } } ..k k 9 #.1 9 ! # o 1 y y y y d > ",
"@ - - , ; * , 8 ( 0 M ~ } } / M 9 %.2.y 7 y 9 0 d d d d d &.1 d d F * d d d d d d d 7 y } } } / 9 9 9 *.1 9 M # X ; 2 1 1 1 1 - ",
"# # $ # # # = ; k 9 k } ..} ..0 9 9 } 1 0 9 8 1 8 9 y 0 y &.; y d F - d d d d d y d 7 k } } } } ~ 9 9 #.1 9 9 + X O - - - - - o ",
"# # # # # # & - 9 k 9 M ....F k M ~ <.1 7 9 d d d d d d d O.- d d F - d d d d d 8 y 7 y } } } } } F M =.9 M 9 + o - ; * 1 1 7 - ",
"* - & # # # & = k k 9 k M q 0 ..} / :.1 8 y 9 d d d d d d / * d d F ; d d d d d 8 0 8 4 } } } } } } } / 9 W 2 o O 7 7 ; < 7 y > ",
"& ; ; = ; ; ; , ( ..q q M ( / ....} ( + $ > 1 1 1 1 1 1 > $ $ d d F > d d d d d d d 8 - 2 2 2 2 : 1 ; $ # + # # $ - - # # # $ X ",
"& ; ; = - - = > 9 / 9 9 k 1 2 8 2 8 * * 0 F F F F n F F d F - y d n 1 d d d d d d d 8 9 +.+.+.+./ 8 ~ k ~ 8 ; k F F F F y 8 v 6 ",
"* ; ; - & # # & ; 1 ; 1 ; = = ; > 2 > ; 8 y d d y 8 d y 0 d > y d k 1 d d d d d d d 9 8 d d d d ` 9 0 4 1 7 ; 1 0 y y y 7 1 1 9 ",
"# & $ - - - # + ; 1 1 8 7 7 1 7 9 d 8 ; 9 y d d d d d y k d > y d d 7 d d d d d d d 8 7 d d 8 d k y y 0 7 > ; 1 1 1 7 0 1 1 1 ; ",
"o O + + # # + . @ & # & - * # $ $ ; - - 8 y d y d d d d d d > y d d 8 d d d d d k d y 7 d d 0 9 1 $ ; - # + o @ # # # # # # # o ",
"> 8 9 8 9 ; k ! / ( k ( ~ # ; 1 7 9 - + + $ $ $ - 1 1 2 1 > - w d d 8 0 d d d d k k k 4 y y y y 4 0 1 & - * & & & & # * ; ; ; # ",
"> 1 1 0 d 8 W 0 M / ../ q.* 0 y y y 6.@ + + @ O - F F F n d 8 1 9 8 > 9 9 9 9 0 y k y 1 8 y d d 7 9 1 # # # # # # # & > 1 1 < # ",
"> 1 8 d d ; 9 / ~ / } M =.- d y 0 8 ^ O o @ O X % 9 9 8 7 9 1 # - ; 1 9 9 8 y k k ; # 1 9 0 9 9 ; 9 ; # # # # # # & - 1 1 1 < # ",
"> 1 1 8 7 ; 9 ~ M / / k k & 6 1 1 6 1 - # @ O + - 0 y 0 0 9 # / / ..} 2.8.8.9.i.l.c.$ ; 8 9 y k 1 7 & O # # O o o O O > 1 1 1 $ ",
"> 1 1 2 9 0 / } } ......k 8 y 9 7 d d Z ^ | ..F > d k k d k ; W / k M k } } } / } s.7 7 y d d d ` > - 9 ..| / ~ ! [ - ; 1 1 1 $ ",
"# - & ; - & - ; ; = = ; & 8 d d 7 y 0 y d d d F 1 k k y 8 8 1 ^ } k 9 k ..} } } } h.9 - ; 1 1 1 - # + ; 1 1 1 1 1 1 - o + # # o ",
"7 F F F F 0 O + @ O @ @ @ 7 d d 0 y 0 y d d y d 8 8 y 0 9 y 1 9 ( / W k / ..} ..M ( 9 8 0 k ^ ..7 1.1 ; 1 1 1 1 1 1 # X X X $ $ ",
"< y 7 9 d 0 + + + @ @ @ @ 1 d d d 9 y 0 y y d d 8 y y 9 9 d 8 9 ..} ( 0 / / M ~ 0 0 9 1 1 7 1 v > 2 1 # $ $ $ $ # # + X X O > $ ",
"7 d y d d 7 O O @ @ @ + @ > d d d y 8 d y y d d 8 d 8 8 1 y 9 2 ....F 0 ~ 0 / / k ~ 8 0 8 0 8 ^ > 1 1 & 2 8 9 9 ~ ; v 9 O ; 1 $ ",
"3 y d d d 0 @ @ @ O + @ @ - d d d d y 0 y d d d 7 d y 0 9 d 9 O @ # $ - ; ; ; 1 1 1 - 7 9 y 0 9 1 8 9 ; > 1 1 < 9 - 1 0 & < 1 $ ",
"5 y d d d 0 @ @ @ @ @ @ @ & d d d d 0 8 y 0 d 9 > y d y y 8 1 + ; 1 0 d 0 1 1 2 6 7 ; 1 1 1 1 2 8 7 7 > 1 1 1 1 6 - 1 9 & 1 1 $ ",
"> 7 8 d d 9 @ @ + @ @ @ @ + - - > 1 1 1 1 ; & + * 6 7 7 1 ; - > 1 1 1 1 1 1 1 1 1 1 ; 1 1 1 , ; 1 7 1 1 1 1 1 1 1 - 1 9 & 0 7 $ ",
"; ; - = ; & @ @ + + @ @ @ @ - = 2 9 > F E 1.$ M } } ! ~ M M 2 - 1 1 1 1 1 1 1 1 1 < - 1 1 1 1 - 9 d 1 4 8 7 8 1 2 1 7 ^ $ 1 1 $ ",
"> , ; - 1 / @ @ @ @ + @ @ # ; ; ; 2 2 d 0 0 y } / ( k 0 0 / s.= 1 1 1 1 8 8 1 1 1 8 - + & & = & ; = - ; ; ; 1 1 ; 8 y ^ - , , # ",
"- ; - * ; / @ @ @ + @ @ @ & ; ; ; 1 7 d y 2 9 ~ / k 0 9 9 9 r.& 1 1 1 1 7 y 2 1 1 8 1 - & & 2 0 ~ M E ..0 1 0 &./ ; 1 8 # # & O ",
"- ; ; ; ; 8 1 F _ 1.:.^ $ ; ; ; ; , 7 y 1 1 8 F M k 9 9 9 9 6.# 1 1 < 1 0 0 7 7 8 d 1 ; - $ ; 1 0 1 1 1 1 ; 1 8 F ; 1 y # # # o ",
"- ; & - # * y 2 1 9 n ^ 1 ; ; ; ; ; 1 9 7 8 0 ( ....W F F ~ u.* 9 8 8 9 d 0 8 9 y d 1 ; ; ; ; ; 0 6 1 7 0 1 7 0 9 ; 1 1 & - # o ",
"@ @ + + o 1 5 7 7 8 0 0 ; $ $ # # # 1 0 0 0 8 1 8 8 6 2 2 8 1 # ; ; ; ; < < < 1 1 1 @ + # # # @ ; < 1 1 1 7 8 0 d # * # + # @   "
};
